<svg width="9" height="15" viewBox="0 0 9 15" fill="none" xmlns="http://www.w3.org/2000/svg">
<path d="M0.399703 0.394637C0.272999 0.518919 0.172476 0.666543 0.10389 0.829057C0.0353038 0.991571 0 1.16579 0 1.34173C0 1.51767 0.0353038 1.69188 0.10389 1.8544C0.172476 2.01691 0.272999 2.16454 0.399703 2.28882L5.70275 7.50117L0.399703 12.7135C0.144148 12.9647 0.000578732 13.3054 0.000578732 13.6606C0.000578732 14.0158 0.144148 14.3565 0.399703 14.6077C0.655257 14.8589 1.00186 15 1.36327 15C1.72468 15 2.07129 14.8589 2.32684 14.6077L8.6003 8.44154C8.727 8.31726 8.82753 8.16964 8.89611 8.00712C8.9647 7.84461 9 7.67039 9 7.49445C9 7.31851 8.9647 7.1443 8.89611 6.98178C8.82753 6.81927 8.727 6.67165 8.6003 6.54736L2.32684 0.381203C1.80747 -0.129285 0.932742 -0.129285 0.399703 0.394637Z" fill="#555555"/>
</svg>
