<svg width="9" height="15" viewBox="0 0 9 15" fill="none" xmlns="http://www.w3.org/2000/svg">
<path d="M8.6003 14.6054C8.727 14.4811 8.82752 14.3335 8.89611 14.1709C8.9647 14.0084 9 13.8342 9 13.6583C9 13.4823 8.9647 13.3081 8.89611 13.1456C8.82752 12.9831 8.727 12.8355 8.6003 12.7112L3.29725 7.49883L8.6003 2.28648C8.85585 2.03529 8.99942 1.69462 8.99942 1.33939C8.99942 0.98416 8.85585 0.643479 8.6003 0.392296C8.34474 0.141111 7.99814 0 7.63673 0C7.27532 0 6.92871 0.141111 6.67316 0.392296L0.399701 6.55846C0.272997 6.68274 0.172475 6.83036 0.103889 6.99288C0.0353022 7.15539 0 7.32961 0 7.50555C0 7.68149 0.0353022 7.8557 0.103889 8.01822C0.172475 8.18073 0.272997 8.32835 0.399701 8.45264L6.67316 14.6188C7.19253 15.1293 8.06726 15.1293 8.6003 14.6054Z" fill="#555555"/>
</svg>
