<svg width="18" height="11" viewBox="0 0 18 11" fill="none" xmlns="http://www.w3.org/2000/svg">
<path d="M0.473565 0.488526C0.622703 0.333665 0.799851 0.210805 0.994868 0.126977C1.18989 0.0431491 1.39894 0 1.61007 0C1.8212 0 2.03026 0.0431491 2.22528 0.126977C2.42029 0.210805 2.59744 0.333665 2.74658 0.488526L9.0014 6.97003L15.2562 0.488526C15.5576 0.176181 15.9665 0.000707339 16.3927 0.000707339C16.819 0.000707339 17.2278 0.176181 17.5292 0.488526C17.8307 0.80087 18 1.2245 18 1.66622C18 2.10794 17.8307 2.53157 17.5292 2.84392L10.1299 10.5115C9.98071 10.6663 9.80357 10.7892 9.60855 10.873C9.41353 10.9569 9.20447 11 8.99334 11C8.78221 11 8.57316 10.9569 8.37814 10.873C8.18312 10.7892 8.00597 10.6663 7.85684 10.5115L0.457444 2.84392C-0.155142 2.20913 -0.155142 1.14002 0.473565 0.488526Z" fill="#5C5C5C"/>
<path d="M0.473565 0.488526C0.622703 0.333665 0.799851 0.210805 0.994868 0.126977C1.18989 0.0431491 1.39894 0 1.61007 0C1.8212 0 2.03026 0.0431491 2.22528 0.126977C2.42029 0.210805 2.59744 0.333665 2.74658 0.488526L9.0014 6.97003L15.2562 0.488526C15.5576 0.176181 15.9665 0.000707339 16.3927 0.000707339C16.819 0.000707339 17.2278 0.176181 17.5292 0.488526C17.8307 0.80087 18 1.2245 18 1.66622C18 2.10794 17.8307 2.53157 17.5292 2.84392L10.1299 10.5115C9.98071 10.6663 9.80357 10.7892 9.60855 10.873C9.41353 10.9569 9.20447 11 8.99334 11C8.78221 11 8.57316 10.9569 8.37814 10.873C8.18312 10.7892 8.00597 10.6663 7.85684 10.5115L0.457444 2.84392C-0.155142 2.20913 -0.155142 1.14002 0.473565 0.488526Z" fill="#5C5C5C"/>
<path d="M0.473565 0.488526C0.622703 0.333665 0.799851 0.210805 0.994868 0.126977C1.18989 0.0431491 1.39894 0 1.61007 0C1.8212 0 2.03026 0.0431491 2.22528 0.126977C2.42029 0.210805 2.59744 0.333665 2.74658 0.488526L9.0014 6.97003L15.2562 0.488526C15.5576 0.176181 15.9665 0.000707339 16.3927 0.000707339C16.819 0.000707339 17.2278 0.176181 17.5292 0.488526C17.8307 0.80087 18 1.2245 18 1.66622C18 2.10794 17.8307 2.53157 17.5292 2.84392L10.1299 10.5115C9.98071 10.6663 9.80357 10.7892 9.60855 10.873C9.41353 10.9569 9.20447 11 8.99334 11C8.78221 11 8.57316 10.9569 8.37814 10.873C8.18312 10.7892 8.00597 10.6663 7.85684 10.5115L0.457444 2.84392C-0.155142 2.20913 -0.155142 1.14002 0.473565 0.488526Z" fill="#5C5C5C"/>
</svg>
