<svg width="34" height="34" viewBox="0 0 34 34" fill="none" xmlns="http://www.w3.org/2000/svg">
<path fill-rule="evenodd" clip-rule="evenodd" d="M32.1232 0H1.8768C0.8398 0 0 0.8398 0 1.8768V32.1232C0 33.1602 0.8398 34 1.8768 34H18.1594V20.8335H13.7292V15.7029H18.1594V11.917C18.1594 7.5242 20.842 5.134 24.7605 5.134C26.6373 5.134 28.2489 5.2734 28.7198 5.3363V9.9263H26.0032C23.8714 9.9263 23.46 10.9395 23.46 12.4253V15.7012H28.5413L27.8783 20.8318H23.4583V34H32.1232C33.1602 34 34 33.1602 34 32.1232V1.8768C34 0.8398 33.1602 0 32.1232 0Z" fill="white"/>
</svg>
