<svg width="35" height="34" viewBox="0 0 35 34" fill="none" xmlns="http://www.w3.org/2000/svg">
<mask id="mask0_946_2410" style="mask-type:luminance" maskUnits="userSpaceOnUse" x="15" y="14" width="6" height="20">
<path d="M15.2608 14.7227H20.3799V33.8328H15.2608V14.7227Z" fill="white"/>
</mask>
<g mask="url(#mask0_946_2410)">
<path d="M19.9418 33.4243H15.693V15.1387H19.9418V33.4243Z" stroke="black" stroke-width="1.3" stroke-miterlimit="10" stroke-linecap="round" stroke-linejoin="round"/>
</g>
<path d="M20.0821 9.11719V8.2519C20.0821 6.9677 19.0398 5.92685 17.7577 5.92685H17.877C16.5931 5.92685 15.5526 6.9677 15.5526 8.2519V9.11719H20.0821Z" stroke="black" stroke-width="1.3" stroke-miterlimit="10" stroke-linecap="round" stroke-linejoin="round"/>
<path d="M30.3713 6.71079C30.3798 4.85786 29.1606 4.85786 29.1606 4.85786C30.2744 2.72667 28.071 -0.0986398 23.7323 2.62262C20.8701 4.41658 19.4459 5.88482 19.0077 6.29492C19.6537 6.70808 20.0821 7.42864 20.0821 8.2519V9.11719H27.5301C28.8139 9.11719 30.3645 8.39662 30.3713 6.71079Z" stroke="black" stroke-width="1.3" stroke-miterlimit="10" stroke-linecap="round" stroke-linejoin="round"/>
<path d="M29.1607 4.85752C29.1607 4.85752 28.2283 6.31289 25.0342 6.71045" stroke="black" stroke-width="1.3" stroke-miterlimit="10" stroke-linecap="round" stroke-linejoin="round"/>
<path d="M19.0077 6.29451C19.0077 6.29451 20.5918 6.55141 23.4459 5.1496C25.7941 3.99487 26.3024 2.49443 25.7632 1.68236" stroke="black" stroke-width="1.3" stroke-miterlimit="10" stroke-linecap="round" stroke-linejoin="round"/>
<path d="M5.26172 6.71079C5.25324 4.85786 6.47237 4.85786 6.47237 4.85786C5.35865 2.72667 7.56237 -0.0986398 11.9007 2.62262C14.7633 4.41658 16.1875 5.88482 16.6257 6.29492C15.9811 6.70808 15.5526 7.42864 15.5526 8.2519V9.11719H8.10297C6.81944 9.11719 5.27019 8.39662 5.26172 6.71079Z" stroke="black" stroke-width="1.3" stroke-miterlimit="10" stroke-linecap="round" stroke-linejoin="round"/>
<path d="M6.47232 4.85752C6.47232 4.85752 7.40506 6.31289 10.5988 6.71045" stroke="black" stroke-width="1.3" stroke-miterlimit="10" stroke-linecap="round" stroke-linejoin="round"/>
<path d="M16.6257 6.29451C16.6257 6.29451 15.0412 6.55141 12.1874 5.1496C9.83897 3.99487 9.33057 2.49443 9.86981 1.68236" stroke="black" stroke-width="1.3" stroke-miterlimit="10" stroke-linecap="round" stroke-linejoin="round"/>
<path d="M20.096 9.00612C20.78 10.6567 22.8139 11.7328 23.9893 13.0112C25.2982 14.4358 26.4601 16.2101 26.8139 18.1542C27.4626 21.7099 26.6312 25.0927 28.9488 28.0106C28.168 27.7493 27.4233 27.2842 26.6651 26.9416C26.6848 27.7859 26.5485 28.7016 26.9471 29.4097C22.9572 26.7813 24.3913 21.7465 23.3545 18.0504C22.762 15.9389 21.4853 14.5524 19.6354 13.3302C17.1748 11.7047 15.7282 9.11695 15.7282 9.11695L20.096 9.00612Z" stroke="black" stroke-width="1.3" stroke-miterlimit="10" stroke-linecap="round" stroke-linejoin="round"/>
<path d="M15.7282 9.11695L17.835 9.06374L15.5723 9.00612C14.8883 10.6567 12.8544 11.7328 11.679 13.0112C10.3701 14.4358 9.20989 16.2101 8.85436 18.1542C8.20565 21.7099 9.03704 25.0927 6.71944 28.0106C7.50033 27.7493 8.24632 27.2842 9.00315 26.9416C8.98349 27.7859 9.11974 28.7016 8.72116 29.4097C12.7127 26.7813 11.2774 21.7465 12.3138 18.0504C12.9066 15.9389 14.183 14.5524 16.0329 13.3302C16.7141 12.8804 17.3181 12.3564 17.835 11.8338C16.485 10.47 15.7282 9.11695 15.7282 9.11695Z" stroke="black" stroke-width="1.3" stroke-miterlimit="10" stroke-linecap="round" stroke-linejoin="round"/>
<path d="M13.8882 15.1396H21.7801C21.1887 14.4696 20.4712 13.8826 19.6354 13.3304C18.9541 12.8807 18.3502 12.3567 17.8333 11.8341H17.835C17.3181 12.3567 16.7142 12.8807 16.0329 13.3304C15.1971 13.8826 14.4796 14.4696 13.8882 15.1396Z" stroke="black" stroke-width="1.3" stroke-miterlimit="10" stroke-linecap="round" stroke-linejoin="round"/>
<mask id="mask1_946_2410" style="mask-type:luminance" maskUnits="userSpaceOnUse" x="19" y="8" width="16" height="8">
<path d="M19.6858 8.64941H35V15.5907H19.6858V8.64941Z" fill="white"/>
</mask>
<g mask="url(#mask1_946_2410)">
<path d="M33.0007 9.11721H20.1481C20.8755 10.7048 22.8406 11.7626 23.9892 13.0115C24.5807 13.6548 25.1409 14.3713 25.61 15.1396H34.6327V10.7512C34.6327 9.8476 33.9023 9.11721 33.0007 9.11721Z" stroke="black" stroke-width="1.3" stroke-miterlimit="10" stroke-linecap="round" stroke-linejoin="round"/>
</g>
<path d="M11.679 13.0115C12.8276 11.7626 14.7927 10.7048 15.5201 9.11721H2.63263C1.73073 9.11721 1 9.8476 1 10.7512V15.1396H10.0582C10.5273 14.3713 11.0876 13.6548 11.679 13.0115Z" stroke="black" stroke-width="1.3" stroke-miterlimit="10" stroke-linecap="round" stroke-linejoin="round"/>
<mask id="mask2_946_2410" style="mask-type:luminance" maskUnits="userSpaceOnUse" x="3" y="14" width="30" height="20">
<path d="M3.11357 14.7227H32.5272V33.8328H3.11357V14.7227Z" fill="white"/>
</mask>
<g mask="url(#mask2_946_2410)">
<path d="M25.6101 15.1392C26.1818 16.0737 26.6201 17.0877 26.8139 18.154C27.4627 21.7097 26.6313 25.0926 28.9489 28.0104C28.168 27.7491 27.4233 27.2841 26.6652 26.9414C26.6848 27.7857 26.5486 28.7015 26.9471 29.4095C22.9573 26.7811 24.3913 21.7463 23.3545 18.0503C23.0288 16.8925 22.4977 15.954 21.7802 15.1392H13.8882C13.1707 15.954 12.6382 16.8925 12.3139 18.0503C11.2774 21.7463 12.7128 26.7811 8.72119 29.4095C9.11978 28.7015 8.98353 27.7857 9.00318 26.9414C8.24635 27.2841 7.50037 27.7491 6.71947 28.0104C9.03708 25.0926 8.20568 21.7097 8.85439 18.154C9.04962 17.0877 9.4865 16.0737 10.0583 15.1392H3.53557V33.4248L32.0975 33.4241V15.1385L25.6101 15.1392Z" stroke="black" stroke-width="1.3" stroke-miterlimit="10" stroke-linecap="round" stroke-linejoin="round"/>
</g>
</svg>
