<svg width="20" height="24" viewBox="0 0 20 24" fill="none" xmlns="http://www.w3.org/2000/svg">
<path d="M2.66029 23.1639C2.0746 23.1639 1.57304 22.9447 1.15561 22.5064C0.738172 22.0681 0.529809 21.5418 0.530519 20.9276V5.27379C0.530519 4.65882 0.739237 4.13218 1.15667 3.69387C1.57411 3.25556 2.07531 3.03678 2.66029 3.03753H3.72518V0.80127H5.85495V3.03753H14.374V0.80127H16.5038V3.03753H17.5687C18.1544 3.03753 18.6559 3.25668 19.0734 3.69499C19.4908 4.1333 19.6992 4.65956 19.6985 5.27379V20.9276C19.6985 21.5426 19.4897 22.0692 19.0723 22.5075C18.6549 22.9458 18.1537 23.1646 17.5687 23.1639H2.66029ZM2.66029 20.9276H17.5687V9.74631H2.66029V20.9276ZM2.66029 7.51005H17.5687V5.27379H2.66029V7.51005ZM10.1145 14.2188C9.81277 14.2188 9.55968 14.1115 9.35522 13.8968C9.15077 13.6821 9.04889 13.4168 9.0496 13.1007C9.0496 12.7839 9.15183 12.5182 9.35629 12.3035C9.56075 12.0888 9.81348 11.9818 10.1145 11.9826C10.4162 11.9826 10.6693 12.0899 10.8738 12.3046C11.0782 12.5193 11.1801 12.7846 11.1794 13.1007C11.1794 13.4175 11.0771 13.6832 10.8727 13.8979C10.6682 14.1126 10.4155 14.2196 10.1145 14.2188ZM5.85495 14.2188C5.55323 14.2188 5.30014 14.1115 5.09568 13.8968C4.89122 13.6821 4.78935 13.4168 4.79006 13.1007C4.79006 12.7839 4.89229 12.5182 5.09675 12.3035C5.30121 12.0888 5.55394 11.9818 5.85495 11.9826C6.15666 11.9826 6.40975 12.0899 6.61421 12.3046C6.81867 12.5193 6.92054 12.7846 6.91983 13.1007C6.91983 13.4175 6.8176 13.6832 6.61314 13.8979C6.40869 14.1126 6.15595 14.2196 5.85495 14.2188ZM14.374 14.2188C14.0723 14.2188 13.8192 14.1115 13.6148 13.8968C13.4103 13.6821 13.3084 13.4168 13.3091 13.1007C13.3091 12.7839 13.4114 12.5182 13.6158 12.3035C13.8203 12.0888 14.073 11.9818 14.374 11.9826C14.6757 11.9826 14.9288 12.0899 15.1333 12.3046C15.3377 12.5193 15.4396 12.7846 15.4389 13.1007C15.4389 13.4175 15.3367 13.6832 15.1322 13.8979C14.9278 14.1126 14.675 14.2196 14.374 14.2188ZM10.1145 18.6913C9.81277 18.6913 9.55968 18.584 9.35522 18.3693C9.15077 18.1546 9.04889 17.8893 9.0496 17.5732C9.0496 17.2564 9.15183 16.9907 9.35629 16.776C9.56075 16.5613 9.81348 16.4543 10.1145 16.4551C10.4162 16.4551 10.6693 16.5624 10.8738 16.7771C11.0782 16.9918 11.1801 17.2572 11.1794 17.5732C11.1794 17.89 11.0771 18.1558 10.8727 18.3704C10.6682 18.5851 10.4155 18.6921 10.1145 18.6913ZM5.85495 18.6913C5.55323 18.6913 5.30014 18.584 5.09568 18.3693C4.89122 18.1546 4.78935 17.8893 4.79006 17.5732C4.79006 17.2564 4.89229 16.9907 5.09675 16.776C5.30121 16.5613 5.55394 16.4543 5.85495 16.4551C6.15666 16.4551 6.40975 16.5624 6.61421 16.7771C6.81867 16.9918 6.92054 17.2572 6.91983 17.5732C6.91983 17.89 6.8176 18.1558 6.61314 18.3704C6.40869 18.5851 6.15595 18.6921 5.85495 18.6913ZM14.374 18.6913C14.0723 18.6913 13.8192 18.584 13.6148 18.3693C13.4103 18.1546 13.3084 17.8893 13.3091 17.5732C13.3091 17.2564 13.4114 16.9907 13.6158 16.776C13.8203 16.5613 14.073 16.4543 14.374 16.4551C14.6757 16.4551 14.9288 16.5624 15.1333 16.7771C15.3377 16.9918 15.4396 17.2572 15.4389 17.5732C15.4389 17.89 15.3367 18.1558 15.1322 18.3704C14.9278 18.5851 14.675 18.6921 14.374 18.6913Z" fill="#222222"/>
</svg>
