<svg width="34" height="38" viewBox="0 0 34 38" fill="none" xmlns="http://www.w3.org/2000/svg">
<path d="M13.2499 10.9475C13.4275 10.9491 13.6044 10.9422 13.7808 10.9265C13.9576 10.9108 14.1329 10.8871 14.3075 10.855C14.4816 10.8225 14.6538 10.7819 14.8245 10.7334C14.9948 10.6848 15.1625 10.6278 15.3274 10.5632C15.4923 10.4985 15.6538 10.4259 15.8119 10.3456C15.9699 10.2656 16.1237 10.1781 16.2733 10.0832C16.4229 9.98835 16.5675 9.88662 16.7071 9.778C16.8471 9.66901 16.981 9.55389 17.1099 9.43265C17.2384 9.31103 17.3611 9.18367 17.4774 9.05058C17.594 8.9171 17.7037 8.77865 17.8069 8.63523C17.91 8.49143 18.0059 8.34304 18.0949 8.19006C18.1835 8.03746 18.2648 7.88065 18.3385 7.72002C18.4125 7.55939 18.4781 7.3957 18.536 7.22857C18.5943 7.06182 18.6442 6.89239 18.6856 6.72067C18.7274 6.54895 18.7608 6.3757 18.7857 6.20092C18.8107 6.02614 18.8272 5.85021 18.8356 5.6739C18.8421 5.49262 18.8398 5.31133 18.8283 5.13043C18.8168 4.94953 18.7965 4.7694 18.767 4.59041C18.7374 4.41142 18.6991 4.23434 18.6523 4.05918C18.6051 3.88363 18.5495 3.71153 18.485 3.54172C18.421 3.37191 18.3481 3.20593 18.2675 3.04338C18.1866 2.88084 18.098 2.72289 18.0013 2.56914C17.9047 2.4154 17.8003 2.26662 17.6891 2.1232C17.5775 1.97978 17.4593 1.8421 17.3343 1.71053C17.2089 1.57897 17.0777 1.45353 16.94 1.33497C16.8023 1.2164 16.6588 1.10473 16.51 1.00032C16.3615 0.895526 16.2077 0.798766 16.0493 0.709272C15.8909 0.62016 15.7282 0.538697 15.5618 0.465649C15.3953 0.3926 15.2254 0.327583 15.0524 0.271362C14.8794 0.214759 14.7037 0.167335 14.5261 0.128325C14.3481 0.0893148 14.169 0.059101 13.988 0.0376836C13.8073 0.0166486 13.6259 0.00402771 13.444 0.000968082C13.2618 -0.00247397 13.08 0.00326273 12.8986 0.0181784C12.7172 0.0327116 12.5369 0.0564237 12.3577 0.0889323C12.1786 0.121441 12.0018 0.162746 11.8265 0.212847C11.6516 0.262949 11.4797 0.321464 11.3106 0.388776C11.1414 0.455705 10.9761 0.531048 10.8142 0.614423C10.6527 0.69818 10.4955 0.789204 10.3432 0.88826C10.1905 0.987315 10.0432 1.09364 9.90131 1.20723C9.75977 1.3212 9.6236 1.44129 9.49395 1.56864C9.36391 1.69562 9.24079 1.82871 9.12418 1.96793C9.00757 2.10752 8.89787 2.25209 8.79583 2.40201C8.6938 2.55231 8.59906 2.70721 8.51237 2.86669C8.42568 3.02617 8.34705 3.18948 8.27685 3.35661C8.20627 3.52375 8.14452 3.69432 8.09082 3.86757C8.0375 4.0412 7.99262 4.21675 7.95695 4.39459C7.92089 4.57243 7.89404 4.75142 7.87601 4.93194C7.85799 5.11246 7.84878 5.29336 7.84878 5.47464C7.84878 5.6521 7.8576 5.82879 7.87486 6.00549C7.89251 6.1818 7.91821 6.35696 7.95273 6.53098C7.98725 6.70499 8.02983 6.87671 8.08123 7.04652C8.13224 7.21633 8.1917 7.38346 8.25921 7.54754C8.32672 7.71161 8.4019 7.87186 8.48475 8.02866C8.56799 8.18547 8.65851 8.33807 8.75633 8.48608C8.85452 8.63409 8.95924 8.77712 9.07124 8.91481C9.18325 9.05287 9.30139 9.18482 9.42644 9.31141C9.5511 9.438 9.68152 9.55809 9.81807 9.67168C9.95463 9.78565 10.0962 9.89236 10.2431 9.99256C10.39 10.0928 10.5415 10.1853 10.6976 10.271C10.8533 10.3563 11.0133 10.4339 11.1767 10.5039C11.3401 10.5739 11.507 10.6358 11.6765 10.6898C11.846 10.7437 12.0179 10.7892 12.1917 10.8263C12.3658 10.8634 12.5411 10.8925 12.7179 10.9127C12.8948 10.933 13.072 10.9445 13.2499 10.9475ZM13.4318 1.8421C13.5511 1.84478 13.67 1.85319 13.7881 1.86772C13.9066 1.88187 14.024 1.90176 14.1402 1.92739C14.2568 1.95339 14.3715 1.98475 14.4851 2.02147C14.5982 2.05818 14.7098 2.10064 14.8188 2.14844C14.9281 2.19625 15.0347 2.24903 15.1387 2.30716C15.2426 2.36529 15.3435 2.4284 15.4413 2.49648C15.5391 2.56417 15.6335 2.63684 15.724 2.71409C15.8149 2.79097 15.9016 2.87243 15.9845 2.9581C16.0669 3.04377 16.1452 3.13288 16.2192 3.2262C16.2933 3.31952 16.3623 3.41589 16.4267 3.5161C16.4916 3.61592 16.5506 3.7188 16.6051 3.82435C16.6596 3.93029 16.7087 4.03853 16.7524 4.14906C16.7961 4.25959 16.8345 4.37164 16.8671 4.486C16.8997 4.60035 16.9269 4.71585 16.9484 4.83288C16.9695 4.94953 16.9852 5.06733 16.9952 5.18551C17.0048 5.30407 17.009 5.42263 17.0071 5.54157C17.0052 5.66013 16.9979 5.77869 16.9845 5.89687C16.971 6.01466 16.9519 6.13208 16.9269 6.24796C16.902 6.36423 16.8713 6.47896 16.8353 6.59217C16.7992 6.70537 16.7574 6.81667 16.7102 6.92567C16.663 7.03505 16.6109 7.14137 16.5533 7.2454C16.4958 7.34943 16.4333 7.45078 16.3658 7.54868C16.2982 7.64659 16.2261 7.74106 16.1494 7.83208C16.0727 7.92272 15.9918 8.00992 15.9066 8.09292C15.8215 8.17591 15.7321 8.25469 15.6393 8.32927C15.546 8.40347 15.4498 8.47307 15.35 8.53809C15.2499 8.60311 15.1471 8.66315 15.0416 8.71823C14.9358 8.77292 14.8276 8.82264 14.7171 8.867C14.6067 8.91175 14.4939 8.95038 14.3796 8.98403C14.2653 9.01731 14.1494 9.04522 14.0321 9.06741C13.9151 9.08959 13.7973 9.10603 13.6784 9.11674C13.5595 9.12745 13.4406 9.13242 13.3213 9.13166C13.202 9.13051 13.0831 9.12401 12.9646 9.11139C12.846 9.09915 12.7283 9.08079 12.6117 9.05708C12.4947 9.03299 12.3792 9.00354 12.2653 8.96835C12.1514 8.93317 12.0398 8.89224 11.9297 8.84635C11.82 8.80007 11.7126 8.74882 11.6075 8.69222C11.5027 8.636 11.4007 8.57442 11.3018 8.50788C11.2032 8.44133 11.1077 8.37019 11.016 8.29447C10.9239 8.21874 10.8361 8.13881 10.7521 8.05429C10.6681 7.97015 10.5883 7.8818 10.5131 7.79001C10.4375 7.69784 10.367 7.60223 10.301 7.50317C10.235 7.40412 10.174 7.30238 10.118 7.19759C10.062 7.09242 10.0114 6.98533 9.96613 6.87518C9.92049 6.76542 9.88059 6.65374 9.84607 6.53977C9.81155 6.42618 9.78278 6.31107 9.75977 6.19442C9.73637 6.07815 9.71911 5.96074 9.7076 5.84218C9.69571 5.724 9.68996 5.60544 9.68996 5.48688C9.68957 5.36564 9.69533 5.24479 9.70683 5.12393C9.71872 5.00346 9.73637 4.88337 9.76015 4.76442C9.78393 4.64586 9.81385 4.52845 9.84914 4.41218C9.88481 4.2963 9.92624 4.18271 9.97304 4.07065C10.0202 3.95898 10.0728 3.8496 10.1307 3.74327C10.1886 3.63657 10.2519 3.53331 10.3202 3.43272C10.3885 3.33252 10.4617 3.23614 10.54 3.14282C10.6178 3.04989 10.7007 2.96116 10.7874 2.87625C10.8744 2.79173 10.9657 2.71141 11.0605 2.63569C11.1556 2.55996 11.2542 2.48921 11.3566 2.42343C11.4586 2.35765 11.5637 2.29722 11.6723 2.24176C11.7805 2.18631 11.8913 2.13659 12.0045 2.09222C12.1176 2.04786 12.2331 2.00923 12.3501 1.97672C12.4671 1.94383 12.5856 1.91668 12.7056 1.89602C12.8253 1.87499 12.9458 1.86007 13.0674 1.85089C13.1886 1.8421 13.3102 1.83904 13.4318 1.8421ZM33.57 12.5106C33.5301 12.4483 33.4829 12.3921 33.4289 12.3416C33.3744 12.2911 33.3149 12.2483 33.2497 12.2127C33.1845 12.1775 33.1159 12.1507 33.0441 12.1328C32.972 12.1148 32.8991 12.106 32.8251 12.1064H27.707C27.6476 12.1064 27.5885 12.1121 27.5298 12.1236C27.4715 12.1351 27.4147 12.1523 27.3595 12.1752C27.3043 12.1978 27.2521 12.2257 27.2022 12.2586C27.1527 12.2919 27.1071 12.3294 27.0649 12.3714C27.0227 12.4135 26.9847 12.459 26.9517 12.5083C26.9188 12.5581 26.8908 12.6101 26.8677 12.6651C26.8451 12.7198 26.8279 12.7764 26.816 12.835C26.8045 12.8931 26.7987 12.952 26.7987 13.0113C26.7987 13.0709 26.8045 13.1298 26.816 13.188C26.8279 13.2461 26.8451 13.3027 26.8677 13.3578C26.8908 13.4125 26.9188 13.4649 26.9517 13.5142C26.9847 13.5635 27.0227 13.6094 27.0649 13.6515C27.1071 13.6936 27.1527 13.731 27.2022 13.7639C27.2521 13.7968 27.3043 13.8247 27.3595 13.8477C27.4147 13.8703 27.4715 13.8875 27.5298 13.8989C27.5885 13.9108 27.6476 13.9165 27.707 13.9165H31.1592C28.2705 16.7949 25.3856 19.6709 22.5045 22.5454V20.0232L22.4923 20.035V18.2188C22.4907 18.0413 22.4808 17.8646 22.462 17.6883C22.4432 17.512 22.4156 17.3368 22.3799 17.1632C22.3438 16.9892 22.2997 16.8178 22.2472 16.648C22.1946 16.4786 22.134 16.3122 22.0653 16.1485C21.9963 15.9848 21.92 15.825 21.8356 15.6689C21.7512 15.5125 21.6595 15.3611 21.5602 15.2134C21.4612 15.0662 21.355 14.9239 21.2422 14.787C21.129 14.6497 21.0097 14.5185 20.8839 14.3931C20.7585 14.2672 20.6269 14.1483 20.4896 14.0355C20.3519 13.9223 20.2096 13.8163 20.0619 13.7173C19.9142 13.6182 19.762 13.5264 19.6055 13.4423C19.449 13.3578 19.2886 13.2813 19.1244 13.2124C18.9603 13.1436 18.7934 13.0828 18.6235 13.03C18.4536 12.9772 18.2813 12.9329 18.1072 12.8965C17.9327 12.8606 17.757 12.833 17.5802 12.8135C17.4029 12.7944 17.2257 12.7841 17.0474 12.7822C14.5645 12.7761 12.0812 12.778 9.5979 12.7879C9.44293 12.7894 9.28797 12.7975 9.13377 12.812C8.97919 12.8265 8.82575 12.8476 8.67309 12.8751C8.52043 12.903 8.3693 12.9371 8.21932 12.9776C8.06972 13.0181 7.92204 13.0652 7.77628 13.1184C7.63091 13.1715 7.48783 13.2308 7.34706 13.2962C7.20667 13.3616 7.06896 13.4331 6.93471 13.51C6.80046 13.5872 6.66966 13.6702 6.54231 13.7586C6.41496 13.8469 6.29184 13.9402 6.17254 14.0393C6.05325 14.1384 5.93856 14.242 5.82809 14.3506C5.718 14.4592 5.61252 14.5724 5.51202 14.6902C5.41152 14.808 5.31601 14.9297 5.22587 15.0555C5.13611 15.1817 5.05134 15.311 4.97271 15.4441C4.89369 15.5771 4.82081 15.7133 4.7533 15.8525C4.68618 15.9921 4.62519 16.134 4.57034 16.2782C4.5151 16.4227 4.46677 16.5696 4.42419 16.7184C4.382 16.8668 4.34594 17.0171 4.31641 17.1689C4.21936 18.0111 4.17678 18.8555 4.18944 19.7031C4.18331 19.7937 4.18944 19.8905 4.18944 20.017C4.17372 20.0079 4.15761 19.9998 4.14111 19.993V23.1367C4.17026 23.2901 4.18446 23.445 4.18331 23.6014C4.18944 24.1322 4.18944 28.9053 4.18944 30.8604H4.14111V32.5921L0.264669 36.4541C0.222475 36.4962 0.184885 36.5421 0.151897 36.5918C0.118909 36.6411 0.0912915 36.6935 0.0682769 36.7486C0.0456458 36.8037 0.0287684 36.8603 0.017261 36.9188C0.00575372 36.9769 0 37.0362 0 37.0955C0.000383554 37.1552 0.00613723 37.2141 0.0180282 37.2722C0.029919 37.3307 0.0471801 37.3873 0.0701948 37.4424C0.0932095 37.4971 0.121594 37.5495 0.154582 37.5988C0.187953 37.6481 0.225928 37.6937 0.268121 37.7357C0.310698 37.7778 0.356728 37.8153 0.406209 37.8482C0.456075 37.8811 0.508625 37.909 0.56386 37.9315C0.619095 37.9541 0.675865 37.9713 0.734553 37.9828C0.79324 37.9943 0.852311 38 0.912149 38C0.971604 37.9996 1.03106 37.9939 1.08936 37.982C1.14805 37.9702 1.20482 37.953 1.26005 37.93C1.31529 37.9074 1.36746 37.8791 1.41732 37.8463C1.4668 37.813 1.51245 37.7755 1.55464 37.733L6.63629 32.6705L8.4533 30.8604L13.4559 25.8762L16.5568 28.9657C16.6343 29.0414 16.7229 29.0999 16.8234 29.1405C16.8395 29.1714 16.8571 29.2009 16.8763 29.2296C16.8959 29.2583 16.917 29.2854 16.9396 29.3118C16.9622 29.3378 16.9864 29.3627 17.0121 29.386C17.0374 29.4093 17.0642 29.4311 17.0926 29.451C17.1206 29.4713 17.1498 29.4896 17.1801 29.5065C17.2104 29.5233 17.2418 29.5382 17.2737 29.5512C17.3059 29.5642 17.3385 29.5757 17.3723 29.5849C17.4056 29.5941 17.4394 29.6013 17.4735 29.6067C17.508 29.612 17.5422 29.6151 17.5771 29.6162C17.6116 29.6178 17.6461 29.6166 17.6807 29.6139C17.7156 29.6113 17.7497 29.6063 17.7835 29.5994C17.8176 29.5925 17.851 29.5837 17.884 29.573C17.9169 29.5623 17.9492 29.5497 17.9806 29.5352C18.0121 29.5206 18.0428 29.5042 18.0719 29.4862C18.1014 29.4678 18.1298 29.4483 18.1571 29.4265C18.1843 29.4051 18.21 29.3822 18.2345 29.3577L20.6511 26.9502C21.2629 26.3348 21.8766 25.7232 22.4923 25.1159C25.7228 21.8937 28.9529 18.6754 32.183 15.4613V18.9007C32.183 18.9599 32.1887 19.0188 32.2002 19.0774C32.2121 19.1355 32.2294 19.1921 32.252 19.2472C32.275 19.3019 32.303 19.3543 32.336 19.4036C32.369 19.4529 32.407 19.4988 32.4492 19.5405C32.4914 19.5826 32.537 19.6201 32.5869 19.6533C32.6364 19.6862 32.6885 19.7141 32.7438 19.7367C32.799 19.7597 32.8558 19.7769 32.9141 19.7883C32.9728 19.7998 33.0318 19.8059 33.0913 19.8059C33.1511 19.8059 33.2102 19.7998 33.2685 19.7883C33.3272 19.7769 33.384 19.7597 33.4392 19.7367C33.4941 19.7141 33.5466 19.6862 33.5961 19.6533C33.6456 19.6201 33.6916 19.5826 33.7338 19.5405C33.776 19.4988 33.8136 19.4529 33.847 19.4036C33.8799 19.3543 33.9079 19.3019 33.931 19.2472C33.9536 19.1921 33.9708 19.1355 33.9824 19.0774C33.9942 19.0188 34 18.9599 34 18.9007V13.2767C33.9985 13.2002 33.9873 13.1252 33.9674 13.0514C33.9471 12.9776 33.9183 12.9072 33.8807 12.8403C33.8431 12.7734 33.7982 12.7122 33.7457 12.6563C33.6931 12.6005 33.6344 12.5519 33.57 12.5106ZM17.5928 27.4389C16.5084 26.3589 15.4264 25.2788 14.3462 24.1988C14.3328 24.1644 14.3171 24.1307 14.299 24.0986C14.2814 24.0661 14.2614 24.0347 14.24 24.0049C14.2181 23.9747 14.1947 23.9464 14.1694 23.9192C14.1445 23.8921 14.1176 23.8664 14.0892 23.8427C14.0608 23.819 14.0309 23.7968 13.9998 23.7766C13.9688 23.7567 13.9366 23.7383 13.9032 23.7223C13.8698 23.7058 13.8357 23.6917 13.8008 23.6798C13.7655 23.6679 13.7298 23.658 13.6934 23.6504C13.6573 23.6427 13.6205 23.6373 13.5837 23.6343C13.5465 23.6312 13.5096 23.6305 13.4724 23.632C13.4352 23.6335 13.3984 23.6373 13.362 23.6431C13.3255 23.6492 13.2891 23.6576 13.2538 23.6679C13.2181 23.6783 13.1832 23.6909 13.1491 23.7058C13.1153 23.7203 13.0823 23.7372 13.0501 23.7559C13.0183 23.7746 12.9876 23.7953 12.958 23.8179C12.9289 23.8404 12.9009 23.8649 12.8744 23.8909L6.01834 30.7215C6.01834 27.8072 6.01259 20.4274 6.01834 18.2853C6.01719 18.1641 6.0218 18.0432 6.03254 17.9227C6.04328 17.8023 6.05977 17.6826 6.08279 17.5636C6.10542 17.4447 6.1338 17.3269 6.16832 17.211C6.20285 17.0947 6.24312 16.9807 6.28915 16.8687C6.3348 16.7566 6.3862 16.6472 6.44335 16.5402C6.50012 16.4331 6.56226 16.329 6.62938 16.2285C6.69689 16.1275 6.76901 16.0304 6.84572 15.9367C6.92282 15.8429 7.00452 15.7535 7.09045 15.6682C7.17637 15.5825 7.26651 15.5014 7.36048 15.4249C7.45484 15.3484 7.55227 15.2765 7.65354 15.2096C7.7548 15.1427 7.85952 15.0811 7.96692 15.0245C8.07432 14.9683 8.18441 14.917 8.2968 14.8715C8.40957 14.826 8.52388 14.7862 8.64049 14.7518C8.75709 14.7178 8.87524 14.6895 8.99453 14.6673C9.11382 14.6447 9.23426 14.6283 9.35509 14.6176C9.4763 14.6072 9.59751 14.6027 9.71911 14.6042C11.9803 14.5984 14.2434 14.5984 16.5084 14.6042C16.9396 14.5923 17.3677 14.6225 17.7927 14.6948C17.8943 14.717 17.9952 14.7434 18.0945 14.774C18.1943 14.8046 18.2925 14.8394 18.3891 14.8784C18.4854 14.9174 18.5802 14.9606 18.673 15.0081C18.7658 15.0551 18.8567 15.1063 18.9449 15.1614C19.0335 15.2161 19.1195 15.275 19.2027 15.3373C19.2859 15.3997 19.3665 15.4655 19.4444 15.5347C19.5218 15.6039 19.5963 15.6766 19.6676 15.7523C19.7389 15.828 19.8072 15.9064 19.8717 15.9879C19.9361 16.0697 19.9971 16.1539 20.0546 16.2403C20.1118 16.3271 20.1651 16.4162 20.215 16.5077C20.2644 16.5991 20.3101 16.6924 20.3515 16.7876C20.3929 16.8828 20.4305 16.9796 20.4635 17.0783C20.4969 17.1766 20.5257 17.2764 20.5502 17.3774C20.5748 17.4783 20.5947 17.5801 20.6104 17.6826C20.6262 17.7854 20.6377 17.8883 20.6442 17.992C20.6511 18.0956 20.6534 18.1996 20.6511 18.3033C20.6572 19.3833 20.6511 21.8574 20.6511 24.3915L17.5928 27.4389Z" fill="black"/>
</svg>
