<svg width="30" height="40" viewBox="0 0 30 40" fill="none" xmlns="http://www.w3.org/2000/svg">
<path d="M11.0781 5.17206C11.1418 5.2365 11.2151 5.28675 11.2987 5.32165C11.3823 5.35694 11.4694 5.37497 11.5599 5.37535C11.6455 5.37497 11.7283 5.35886 11.8077 5.32741C11.8875 5.29595 11.9588 5.25069 12.0214 5.19239C12.0517 5.16093 12.0785 5.12718 12.1023 5.09035C12.1261 5.05391 12.146 5.01556 12.1625 4.97528C12.1786 4.935 12.1909 4.89319 12.1993 4.85062C12.2078 4.80766 12.212 4.7647 12.212 4.72097C12.212 4.67762 12.2078 4.63428 12.1993 4.5917C12.1909 4.54912 12.1786 4.50731 12.1625 4.46704C12.146 4.42676 12.1261 4.38841 12.1023 4.35158C12.0785 4.31514 12.0517 4.28139 12.0214 4.24993L10.176 2.33166C10.1499 2.28716 10.1192 2.24612 10.0835 2.20853C10.0482 2.17055 10.0091 2.13757 9.96614 2.1088C9.9228 2.08041 9.87715 2.05702 9.82882 2.0386C9.78049 2.02058 9.73063 2.00792 9.67923 2.00101C9.62821 1.99411 9.57681 1.99334 9.52541 1.99833C9.47401 2.00293 9.42376 2.01367 9.37467 2.03016C9.32557 2.04666 9.27877 2.06814 9.23504 2.09537C9.19093 2.12222 9.15027 2.15406 9.11345 2.19012C9.07663 2.22656 9.04441 2.26645 9.01679 2.31018C8.98917 2.35352 8.96654 2.39993 8.94966 2.44865C8.9324 2.49736 8.92089 2.54723 8.91552 2.59863C8.90977 2.65003 8.90977 2.70143 8.91591 2.75283C8.92204 2.80423 8.93394 2.85409 8.95158 2.90281C8.96884 2.95114 8.99186 2.99717 9.01986 3.04051C9.04786 3.08424 9.08046 3.12375 9.11767 3.1598C9.15488 3.19548 9.19554 3.22693 9.23965 3.25378L11.0781 5.17206Z" fill="black"/>
<path d="M13.8257 4.06708C13.8702 4.06708 13.9144 4.06286 13.9581 4.05404C14.0018 4.0456 14.0444 4.03256 14.0854 4.01568C14.1265 3.99842 14.1656 3.97771 14.2028 3.95278C14.2396 3.92823 14.2742 3.90023 14.3056 3.86877C14.3371 3.83732 14.3651 3.8028 14.39 3.76597C14.4145 3.72877 14.4356 3.68964 14.4525 3.6486C14.4698 3.60756 14.4824 3.56536 14.4913 3.52163C14.5001 3.47791 14.5043 3.43379 14.5043 3.3893V0.677783C14.5043 0.633288 14.5001 0.589177 14.4913 0.545832C14.4824 0.502104 14.4698 0.459527 14.4525 0.418484C14.4356 0.377441 14.4145 0.338316 14.39 0.301493C14.3651 0.264286 14.3371 0.230147 14.3056 0.198694C14.2742 0.16724 14.2396 0.139239 14.2028 0.114306C14.1656 0.0897574 14.1265 0.0686606 14.0854 0.0517831C14.0444 0.0345221 14.0018 0.0218639 13.9581 0.0130417C13.9144 0.00460294 13.8702 0 13.8257 0C13.7813 0 13.7371 0.00460294 13.6934 0.0130417C13.6497 0.0218639 13.6075 0.0345221 13.5661 0.0517831C13.525 0.0686606 13.4859 0.0897574 13.4491 0.114306C13.4119 0.139239 13.3777 0.16724 13.3463 0.198694C13.3144 0.230147 13.2864 0.264286 13.2619 0.301493C13.237 0.338316 13.2162 0.377441 13.199 0.418484C13.1821 0.459527 13.1691 0.502104 13.1606 0.545832C13.1518 0.589177 13.1476 0.633288 13.1476 0.677783V3.42305C13.1495 3.4664 13.1556 3.50859 13.166 3.55079C13.1764 3.5926 13.1905 3.63287 13.2086 3.67238C13.2266 3.71151 13.2481 3.74833 13.273 3.78362C13.2983 3.81852 13.3263 3.85113 13.3578 3.88066C13.3889 3.91058 13.423 3.93705 13.459 3.96006C13.4955 3.98346 13.5338 4.00303 13.5737 4.01914C13.614 4.03486 13.6551 4.04714 13.6976 4.05519C13.7398 4.06325 13.7828 4.06708 13.8257 4.06708Z" fill="black"/>
<path d="M16.1326 5.37541C16.2231 5.37503 16.3102 5.357 16.3938 5.32171C16.4771 5.2868 16.5507 5.23655 16.614 5.17211L18.4525 3.25384C18.4828 3.22238 18.51 3.18863 18.5338 3.15181C18.5576 3.11537 18.5775 3.07701 18.5937 3.03673C18.6102 2.99646 18.6224 2.95465 18.6309 2.91207C18.6393 2.86911 18.6431 2.82615 18.6431 2.78242C18.6431 2.73907 18.6393 2.69573 18.6309 2.65315C18.6224 2.61058 18.6102 2.56877 18.5937 2.52849C18.5775 2.48821 18.5576 2.44986 18.5338 2.41303C18.51 2.37659 18.4828 2.34284 18.4525 2.31138C18.39 2.25308 18.319 2.20782 18.2392 2.17637C18.1598 2.14453 18.077 2.1288 17.9914 2.12842C17.9005 2.1288 17.8135 2.14683 17.7302 2.18174C17.6466 2.21702 17.573 2.26727 17.5097 2.33171L15.6508 4.24999C15.6205 4.28144 15.5933 4.3152 15.5699 4.35164C15.5461 4.38846 15.5258 4.42682 15.5097 4.4671C15.4932 4.50737 15.4809 4.54918 15.4725 4.59176C15.4644 4.63434 15.4602 4.67768 15.4602 4.72102C15.4602 4.76475 15.4644 4.80771 15.4725 4.85067C15.4809 4.89325 15.4932 4.93506 15.5097 4.97534C15.5258 5.01561 15.5461 5.05397 15.5699 5.09041C15.5933 5.12723 15.6205 5.16099 15.6508 5.19244C15.7161 5.25343 15.7901 5.29946 15.8737 5.3313C15.9569 5.36314 16.0432 5.37771 16.1326 5.37541Z" fill="black"/>
<path d="M29.7187 33.7943C29.2511 33.461 28.7521 33.184 28.222 32.9631C27.6919 32.7425 27.1437 32.5833 26.5776 32.4859C26.5035 32.4752 26.4307 32.4587 26.3593 32.4372C26.2876 32.4157 26.2178 32.3892 26.1499 32.3578C26.082 32.3263 26.0164 32.2903 25.9539 32.2492C25.891 32.2086 25.8315 32.1637 25.7755 32.1142C25.7191 32.0647 25.6666 32.0118 25.6179 31.955C25.5695 31.8983 25.525 31.838 25.4851 31.7747C25.4449 31.7118 25.4096 31.6459 25.3789 31.578C25.3486 31.5097 25.3229 31.4395 25.3022 31.3678L23.4909 24.8535C23.4545 24.705 23.4368 24.5546 23.438 24.4016C23.4391 24.2489 23.4587 24.0986 23.4971 23.9505C23.5358 23.8028 23.5918 23.6617 23.6654 23.5278C23.7387 23.3939 23.8277 23.2708 23.932 23.1588C24.1066 22.9824 24.2742 22.799 24.4341 22.6088C24.5945 22.4189 24.7464 22.2225 24.891 22.0203C25.0352 21.8182 25.171 21.6103 25.2983 21.397C25.4261 21.1838 25.545 20.9659 25.6547 20.743C25.7648 20.5202 25.8657 20.2935 25.9573 20.0626C26.049 19.8316 26.1315 19.5973 26.204 19.3598C26.2768 19.1224 26.3401 18.8823 26.3935 18.6399C26.4472 18.3971 26.4909 18.1527 26.5246 17.9068C26.5584 17.6606 26.5822 17.4136 26.5964 17.1658C26.6102 16.9176 26.614 16.6694 26.6079 16.4212C26.6021 16.1727 26.586 15.9249 26.5599 15.6779C26.5338 15.4308 26.4978 15.1854 26.4521 14.9414C26.4065 14.6971 26.3509 14.455 26.2857 14.2157C26.2201 13.9759 26.1453 13.7393 26.0609 13.5053C25.9765 13.2717 25.8829 13.0419 25.7801 12.8156C25.6773 12.5897 25.5653 12.368 25.4449 12.1509L22.331 6.59934C22.3014 6.5487 22.2662 6.50229 22.2251 6.46087C22.1837 6.41906 22.1377 6.38338 22.0874 6.35385C22.0368 6.32431 21.9831 6.3013 21.9267 6.28557C21.8703 6.26984 21.8128 6.2614 21.7541 6.26025H21.6321L18.1653 6.89738L14.6985 7.57554C14.6318 7.58974 14.5681 7.61352 14.5083 7.64689C14.4484 7.68026 14.3951 7.72169 14.3479 7.77117C14.3008 7.82103 14.2616 7.87627 14.2313 7.93764C14.201 7.99902 14.1803 8.06346 14.1696 8.13135L13.9931 9.35113L11.8696 8.94454L8.40286 8.30741H8.28088C8.22181 8.3078 8.16351 8.31585 8.10635 8.33119C8.0492 8.34692 7.99511 8.36955 7.9441 8.39909C7.8927 8.42901 7.84629 8.46468 7.80448 8.50687C7.76267 8.54868 7.72699 8.5951 7.69746 8.6465L4.58357 14.1842C4.46312 14.4025 4.3515 14.625 4.24909 14.852C4.14629 15.0795 4.05308 15.31 3.96907 15.5448C3.88507 15.7795 3.81104 16.017 3.74622 16.2578C3.68139 16.4983 3.62616 16.7412 3.58128 16.9863C3.53601 17.231 3.50073 17.4776 3.47541 17.7254C3.45009 17.9732 3.43475 18.2218 3.42938 18.4711C3.42401 18.72 3.42861 18.969 3.44357 19.2175C3.45815 19.4665 3.48308 19.7143 3.5176 19.9609C3.55251 20.2076 3.597 20.4527 3.65147 20.6958C3.70594 20.9387 3.77038 21.1795 3.84403 21.4174C3.91806 21.6552 4.0013 21.8899 4.09412 22.1212C4.18695 22.3525 4.28898 22.5796 4.39983 22.8028C4.51107 23.0257 4.63113 23.244 4.75963 23.4576C4.88851 23.6709 5.02545 23.8788 5.17083 24.0813C5.31659 24.2835 5.46963 24.4798 5.63112 24.6697C5.79222 24.86 5.961 25.0429 6.13706 25.2194C6.24024 25.3314 6.32808 25.4541 6.40058 25.5876C6.47307 25.7215 6.52831 25.8619 6.56628 26.0092C6.60426 26.1561 6.62344 26.3057 6.6242 26.458C6.62536 26.6099 6.60733 26.7598 6.57127 26.9075L4.73278 33.4214C4.71053 33.4936 4.6833 33.5634 4.65108 33.6316C4.61886 33.6999 4.58203 33.7651 4.54022 33.828C4.49841 33.8909 4.45238 33.9504 4.40213 34.0064C4.35189 34.0628 4.29818 34.115 4.24026 34.1637C4.18234 34.212 4.12174 34.2561 4.0573 34.2956C3.99324 34.3355 3.92688 34.3704 3.85745 34.4003C3.78841 34.4306 3.71745 34.4556 3.64495 34.4755C3.57207 34.4955 3.49842 34.51 3.42324 34.5196C2.85861 34.6151 2.31125 34.7713 1.78114 34.9887C1.25104 35.2059 0.751618 35.479 0.282502 35.8073C0.22765 35.8468 0.180086 35.8932 0.139044 35.9465C0.0983842 35.9999 0.0661636 36.0582 0.0427653 36.1211C0.0189834 36.1844 0.00517458 36.2492 0.00133884 36.3163C-0.00288054 36.3834 0.00287318 36.4498 0.0185999 36.5154C0.0343266 36.5806 0.0588755 36.6424 0.0930141 36.7003C0.127153 36.7586 0.168963 36.8104 0.218444 36.856C0.267542 36.9017 0.322778 36.9389 0.383383 36.968C0.443988 36.9976 0.507662 37.0171 0.574021 37.0275L12.3242 39.2238H12.4462C12.4757 39.2227 12.5052 39.22 12.5344 39.215C12.5632 39.21 12.5919 39.2035 12.6203 39.1951C12.6483 39.1862 12.6759 39.1759 12.7028 39.164C12.7296 39.1517 12.7557 39.1379 12.7806 39.1226C12.806 39.1068 12.8297 39.09 12.8528 39.0712C12.8754 39.0524 12.8972 39.0324 12.9172 39.011C12.9375 38.9895 12.9563 38.9668 12.9736 38.9431C12.9908 38.9189 13.0066 38.894 13.0204 38.8683C13.0346 38.8422 13.0468 38.8153 13.0572 38.7881C13.0679 38.7605 13.0764 38.7321 13.0833 38.7037C13.0902 38.6749 13.0952 38.6458 13.0982 38.6166C13.1013 38.5871 13.1025 38.5579 13.1017 38.5284C13.1009 38.4989 13.0982 38.4697 13.0936 38.4406C13.089 38.4114 13.0825 38.3827 13.0741 38.3543C13.0656 38.3263 13.0557 38.2986 13.0438 38.2718C13.0315 38.2446 13.0181 38.2185 13.0027 38.1935C12.6725 37.7152 12.2927 37.2802 11.8631 36.889C11.4339 36.4977 10.9655 36.1598 10.4585 35.8752C10.3921 35.8376 10.3284 35.7954 10.2682 35.749C10.2076 35.7022 10.1508 35.6516 10.0975 35.5967C10.0442 35.5419 9.99509 35.4836 9.95021 35.4218C9.90534 35.3601 9.86506 35.2952 9.82939 35.2277C9.7941 35.1602 9.76341 35.0904 9.73771 35.0187C9.71201 34.9466 9.69168 34.8733 9.67672 34.7985C9.66176 34.7237 9.65179 34.6481 9.64757 34.5718C9.64335 34.4955 9.6445 34.4195 9.65141 34.3432L10.3296 27.6394C10.3495 27.4886 10.3875 27.3425 10.4439 27.201C10.4999 27.0598 10.5731 26.9275 10.6625 26.8043C10.7519 26.6812 10.8551 26.5711 10.9721 26.4737C11.0894 26.3763 11.2164 26.2949 11.3541 26.2297C11.8205 25.9862 12.2651 25.7081 12.6874 25.3947C13.1101 25.0817 13.506 24.7376 13.8742 24.3625C14.2428 23.9873 14.58 23.5857 14.8853 23.1577C15.191 22.7296 15.4611 22.2804 15.6958 21.8101C16.1116 22.2969 16.57 22.7399 17.071 23.1389C17.5719 23.5382 18.1062 23.8861 18.6743 24.1826C18.8109 24.2474 18.9378 24.328 19.0548 24.4242C19.1718 24.5205 19.2754 24.6294 19.3651 24.7514C19.4553 24.873 19.5289 25.0042 19.5865 25.1442C19.644 25.2842 19.6835 25.4288 19.7054 25.5788L20.3839 32.2826C20.392 32.3601 20.3947 32.4376 20.3916 32.5154C20.3885 32.5929 20.3797 32.67 20.3651 32.7467C20.3506 32.8231 20.3306 32.8979 20.3049 32.9715C20.2796 33.0452 20.2489 33.1161 20.2129 33.1852C20.1768 33.2542 20.1358 33.3202 20.0901 33.3831C20.0445 33.446 19.9942 33.5055 19.9397 33.5611C19.8853 33.6167 19.827 33.6681 19.7652 33.7149C19.7031 33.7621 19.6379 33.8043 19.5696 33.8419C19.0614 34.133 18.5922 34.4774 18.1626 34.876C17.733 35.2741 17.354 35.7156 17.0257 36.2005C16.9904 36.2553 16.9639 36.3136 16.9455 36.3758C16.9275 36.4383 16.9183 36.5016 16.9183 36.5668C16.9183 36.6316 16.9275 36.6949 16.9455 36.7574C16.9639 36.8196 16.9904 36.8779 17.0257 36.9327C17.0875 37.024 17.1669 37.0961 17.2639 37.1487C17.361 37.2016 17.4649 37.2288 17.575 37.2308H17.6973L29.4475 35.0279C29.5112 35.0152 29.5722 34.9941 29.6297 34.9642C29.6876 34.9339 29.7398 34.8963 29.7866 34.8514C29.8338 34.8062 29.8733 34.7555 29.9055 34.6991C29.9377 34.6428 29.9615 34.5829 29.9765 34.5196C29.9945 34.4533 30.0022 34.3858 29.9995 34.3171C29.9964 34.2484 29.9838 34.1817 29.9607 34.1169C29.9377 34.0521 29.9055 33.9922 29.8645 33.937C29.823 33.8821 29.7747 33.8346 29.7187 33.7943ZM3.68101 35.8752C3.81794 35.8533 3.95258 35.8219 4.08492 35.7805C4.21725 35.739 4.34613 35.6888 4.47118 35.6289C4.59623 35.5691 4.71629 35.5008 4.83136 35.4237C4.94682 35.3466 5.05575 35.2619 5.15894 35.169C5.26173 35.0762 5.35763 34.9769 5.44624 34.8702C5.53484 34.7636 5.61539 34.6516 5.68789 34.5334C5.76039 34.4153 5.82406 34.2926 5.87891 34.1652C5.93338 34.0382 5.97903 33.9078 6.01508 33.774L7.82634 27.26C7.85779 27.1334 7.88158 27.0057 7.89769 26.8768C7.9138 26.7476 7.92185 26.6179 7.92185 26.4875C7.92185 26.3575 7.9138 26.2278 7.89807 26.0986C7.88234 25.9693 7.85856 25.8416 7.82711 25.7154C7.79527 25.5892 7.75614 25.4653 7.70973 25.3437C7.66294 25.2221 7.60885 25.1039 7.54748 24.9889C7.48649 24.8742 7.41821 24.7633 7.34341 24.6567C7.26862 24.55 7.18768 24.4484 7.10023 24.3521L7.05957 24.3111C6.92762 24.1784 6.80027 24.041 6.67752 23.8991C6.55516 23.7576 6.43779 23.6114 6.32578 23.4614C6.21339 23.3111 6.10676 23.1573 6.00549 22.9996C5.90423 22.842 5.80872 22.6809 5.71858 22.5167C5.62882 22.3521 5.54482 22.1849 5.46695 22.0146C5.3887 21.8443 5.31697 21.6713 5.25099 21.496C5.18502 21.3203 5.12556 21.1427 5.07225 20.9632C5.01893 20.7837 4.97213 20.6023 4.93186 20.4193C4.8912 20.2363 4.85744 20.0522 4.83021 19.8669C4.80259 19.6817 4.78188 19.4956 4.76768 19.3088C4.75311 19.122 4.74582 18.9348 4.74467 18.7477C4.74352 18.5605 4.74927 18.3733 4.76155 18.1861C4.77382 17.9993 4.79262 17.8129 4.81793 17.6272C4.84325 17.442 4.87509 17.2575 4.91383 17.0741C4.95219 16.8907 4.99707 16.7089 5.04846 16.5287C5.09948 16.3484 5.1574 16.1704 5.22107 15.9943H11.3744C11.4189 15.9943 11.463 15.9897 11.5068 15.9813C11.5505 15.9725 11.5927 15.9594 11.6341 15.9425C11.6752 15.9257 11.7143 15.9046 11.7515 15.88C11.7883 15.8551 11.8225 15.8271 11.8543 15.7956C11.8858 15.7642 11.9138 15.73 11.9387 15.6928C11.9632 15.656 11.9843 15.6169 12.0012 15.5758C12.0181 15.5344 12.0311 15.4922 12.0399 15.4485C12.0484 15.4048 12.053 15.3607 12.053 15.3162C12.053 15.2717 12.0484 15.2276 12.0399 15.1842C12.0311 15.1405 12.0181 15.0979 12.0012 15.0569C11.9843 15.0158 11.9632 14.9767 11.9387 14.9399C11.9138 14.9027 11.8858 14.8685 11.8543 14.8371C11.8225 14.8056 11.7883 14.7776 11.7515 14.7527C11.7143 14.7281 11.6752 14.707 11.6341 14.6902C11.5927 14.6729 11.5505 14.6602 11.5068 14.6514C11.463 14.643 11.4189 14.6384 11.3744 14.6384H5.85206L8.62687 9.66988L11.6253 10.2188L13.8098 10.6323L13.3621 13.8252C13.2824 14.4032 13.2528 14.984 13.2739 15.567C13.295 16.1504 13.366 16.7273 13.4876 17.2981C13.6092 17.8693 13.7787 18.4251 13.997 18.9667C14.2152 19.5079 14.4784 20.0265 14.7868 20.5221C14.598 21.0027 14.3683 21.4626 14.0971 21.9022C13.8263 22.3418 13.5186 22.7537 13.1742 23.1385C12.8297 23.5232 12.4538 23.8746 12.0465 24.1922C11.6395 24.5098 11.2072 24.789 10.7504 25.0299C10.6318 25.0871 10.5171 25.1519 10.4067 25.2236C10.2962 25.2953 10.1907 25.374 10.0902 25.4591C9.98972 25.5443 9.89498 25.6352 9.80599 25.7322C9.717 25.8293 9.63414 25.9313 9.5582 26.0387C9.48186 26.1461 9.41282 26.2581 9.35068 26.3743C9.28854 26.4902 9.23369 26.6099 9.18689 26.7326C9.13971 26.8557 9.10059 26.9812 9.06913 27.1089C9.03806 27.237 9.01505 27.3663 9.00009 27.4971L8.32154 34.1944C8.30888 34.3332 8.30581 34.4725 8.31272 34.6121C8.32001 34.7517 8.33688 34.8898 8.36373 35.0267C8.39058 35.164 8.42702 35.2983 8.47305 35.4302C8.5187 35.5622 8.57393 35.6903 8.63838 35.8142C8.70282 35.9381 8.77531 36.057 8.85663 36.1706C8.93795 36.2845 9.02694 36.3915 9.1236 36.4924C9.22026 36.5936 9.32345 36.6872 9.43353 36.7732C9.54362 36.8595 9.65908 36.9373 9.78029 37.0071C10.0661 37.1713 10.3372 37.3566 10.5942 37.5629L2.74508 36.0785C3.05309 35.9922 3.36494 35.9247 3.68101 35.8752ZM20.2412 34.9872C20.3625 34.9178 20.4783 34.8399 20.5884 34.7536C20.6985 34.6677 20.802 34.5741 20.8987 34.4732C20.9954 34.3723 21.0843 34.2649 21.1657 34.1514C21.247 34.0379 21.3199 33.9189 21.3843 33.7947C21.4487 33.6708 21.5036 33.5427 21.5496 33.4107C21.5957 33.2788 21.6321 33.1445 21.6586 33.0072C21.6854 32.8702 21.7023 32.7318 21.7092 32.5922C21.7161 32.4525 21.713 32.3133 21.7 32.1741L21.0214 25.4772C21.0072 25.3464 20.985 25.2171 20.9543 25.089C20.924 24.9609 20.8857 24.8354 20.8396 24.7123C20.7932 24.5888 20.7395 24.4691 20.6785 24.3525C20.6171 24.2359 20.5489 24.1239 20.4737 24.0157C20.3985 23.9079 20.3168 23.8051 20.2286 23.7073C20.1404 23.6095 20.0464 23.5178 19.9467 23.4319C19.8469 23.346 19.7426 23.2666 19.6329 23.1937C19.5232 23.1208 19.4093 23.0549 19.2915 22.9962C19.0932 22.8926 18.8995 22.7814 18.7096 22.6628C18.5201 22.5443 18.3352 22.4189 18.1553 22.2862C17.9754 22.1534 17.8005 22.0138 17.6314 21.8681C17.4618 21.7219 17.2984 21.5696 17.1408 21.4108C16.9831 21.2524 16.8316 21.0879 16.6866 20.9179C16.5416 20.7476 16.4035 20.5723 16.2716 20.3917C16.14 20.2106 16.0157 20.0254 15.8984 19.8351C15.781 19.6448 15.6709 19.4504 15.5685 19.2513C15.4661 19.0526 15.3713 18.8505 15.2846 18.6445C15.1976 18.4385 15.1186 18.2294 15.048 18.0177C14.977 17.8056 14.9141 17.5912 14.8596 17.3744C14.8052 17.1577 14.7591 16.9391 14.7215 16.7189C14.684 16.4983 14.6544 16.277 14.6337 16.0545C14.613 15.8321 14.6011 15.6088 14.5973 15.3856C14.5938 15.162 14.5988 14.9387 14.6122 14.7155C14.6257 14.4926 14.6479 14.2701 14.6782 14.0488V13.974H24.807C24.8706 14.1501 24.9282 14.3277 24.9792 14.5076C25.0302 14.6875 25.0751 14.8689 25.1135 15.0519C25.1518 15.2352 25.1836 15.4193 25.209 15.6046C25.2343 15.7899 25.2527 15.9755 25.265 16.1623C25.2772 16.3488 25.283 16.5356 25.2818 16.7224C25.2807 16.9095 25.273 17.0963 25.2588 17.2828C25.2446 17.4692 25.2239 17.6548 25.1967 17.8397C25.1695 18.0246 25.1357 18.2087 25.0954 18.3913C25.0552 18.5739 25.0084 18.7546 24.9554 18.9341C24.9025 19.1132 24.843 19.2904 24.7774 19.4657C24.7118 19.6406 24.6401 19.8132 24.5626 19.9835C24.4848 20.1535 24.4011 20.3207 24.3114 20.4849C24.222 20.6491 24.1269 20.8098 24.0256 20.9674C23.9247 21.1247 23.8185 21.2785 23.7069 21.4285C23.5949 21.5785 23.4783 21.7242 23.3559 21.8661C23.2339 22.0077 23.107 22.145 22.9754 22.2777C22.9581 22.2877 22.9447 22.3015 22.9347 22.3184C22.8461 22.415 22.7637 22.5167 22.6877 22.6233C22.6121 22.73 22.5431 22.8412 22.481 22.9567C22.4192 23.0717 22.3643 23.1906 22.3172 23.313C22.27 23.435 22.2309 23.5596 22.199 23.6866C22.1676 23.814 22.1442 23.9425 22.1284 24.0725C22.1131 24.2025 22.1058 24.3329 22.1066 24.4637C22.1074 24.5949 22.1162 24.7253 22.1334 24.855C22.1503 24.985 22.1756 25.1131 22.2086 25.2397L24.0203 31.754C24.0567 31.8871 24.1027 32.0168 24.1576 32.1434C24.2128 32.2699 24.2769 32.3919 24.3498 32.5093C24.4222 32.6267 24.5032 32.7383 24.5918 32.8442C24.6804 32.95 24.7763 33.049 24.8795 33.1411C24.9823 33.2331 25.0912 33.3175 25.2063 33.3938C25.3214 33.4705 25.4414 33.5384 25.5661 33.5975C25.6907 33.657 25.8192 33.7068 25.9512 33.7479C26.0831 33.7889 26.2174 33.82 26.3539 33.8419C26.6689 33.8971 26.9788 33.9738 27.2834 34.072L19.4273 35.5158C19.6862 35.3129 19.9578 35.1276 20.2412 34.96V34.9872ZM18.4097 8.233L21.4016 7.69062L24.1829 12.6591H14.875L15.4177 8.80913L18.4097 8.233Z" fill="black"/>
</svg>
