<svg width="44" height="35" viewBox="0 0 44 35" fill="none" xmlns="http://www.w3.org/2000/svg">
<mask id="mask0_946_2388" style="mask-type:luminance" maskUnits="userSpaceOnUse" x="19" y="0" width="18" height="18">
<path d="M19.17 0H36.3793V17.1247H19.17V0Z" fill="white"/>
</mask>
<g mask="url(#mask0_946_2388)">
<path d="M27.7883 17.1123C32.5012 17.1123 36.3355 13.2745 36.3355 8.55736C36.3355 3.84018 32.5012 0.00244141 27.7883 0.00244141C23.0753 0.00244141 19.241 3.84018 19.241 8.55736C19.241 13.2745 23.0753 17.1123 27.7883 17.1123ZM20.6621 8.55736C20.6621 4.62474 23.859 1.42521 27.7883 1.42521C31.7175 1.42521 34.9144 4.62474 34.9144 8.55736C34.9144 12.4904 31.7175 15.6899 27.7883 15.6899C23.859 15.6899 20.6621 12.4904 20.6621 8.55736Z" fill="black"/>
</g>
<path d="M25.7005 12.4755C26.0698 12.8362 26.5616 13.0903 27.1024 13.2022L27.0969 13.9578C27.0939 14.3394 27.4019 14.6522 27.7831 14.6551H27.7882C28.1665 14.6551 28.4767 14.3471 28.4796 13.9684L28.4852 13.1996C29.0242 13.086 29.514 12.8311 29.8811 12.4703C30.307 12.0517 30.5419 11.5156 30.5419 10.9608V10.6553C30.5419 9.91753 30.1271 9.22018 29.4323 8.78961L26.9667 7.26217C26.6778 7.08262 26.5118 6.83202 26.5118 6.57334V6.09554C26.5118 5.86323 26.6408 5.63943 26.8739 5.46627C27.1283 5.27736 27.47 5.17312 27.8355 5.17312C28.201 5.17312 28.5426 5.27693 28.797 5.46627C29.0306 5.63943 29.1591 5.86323 29.1591 6.09554V6.63461C29.1591 7.01625 29.4693 7.32684 29.8505 7.32684C30.2321 7.32684 30.5419 7.01625 30.5419 6.63461V6.09554C30.5419 5.04165 29.7058 4.12987 28.5269 3.86565V3.15171C28.5269 2.77007 28.2167 2.45947 27.8355 2.45947C27.4543 2.45947 27.1441 2.77007 27.1441 3.15171V3.86565C25.9651 4.12987 25.1291 5.04122 25.1291 6.09554V6.57334C25.1291 7.31068 25.5439 8.00802 26.2391 8.43902L28.7043 9.96646C28.9932 10.1456 29.1591 10.3966 29.1591 10.6553V10.9608C29.1591 11.1931 29.0306 11.4165 28.797 11.59C28.5426 11.779 28.201 11.8832 27.8355 11.8832H27.7414C27.376 11.8832 27.0347 11.779 26.7799 11.59C26.5467 11.4165 26.4178 11.1931 26.4178 10.9608V10.6638C26.4178 10.2822 26.1076 9.97156 25.7264 9.97156C25.3452 9.97156 25.035 10.2822 25.035 10.6638V10.9608C25.0346 11.5181 25.2712 12.0559 25.7005 12.4755Z" fill="black"/>
<mask id="mask1_946_2388" style="mask-type:luminance" maskUnits="userSpaceOnUse" x="0" y="17" width="44" height="18">
<path d="M0 17.7783H43.0235V34.8001H0V17.7783Z" fill="white"/>
</mask>
<g mask="url(#mask1_946_2388)">
<path d="M42.2066 19.1682C41.2424 18.0961 39.7027 17.9893 38.6198 18.9176L32.271 24.0573C32.274 23.9943 32.2748 23.9314 32.274 23.868C32.2484 22.3354 31.0461 21.0888 29.5935 21.0888H22.5443C22.138 21.0888 21.7547 20.854 21.5189 20.4604C21.4679 20.3757 21.3977 20.3051 21.3198 20.2438C18.4339 17.9646 14.5553 17.6659 11.2345 19.1436L10.0066 19.6899H7.54057V18.5628C7.54057 18.1582 7.21296 17.8306 6.80876 17.8306H0.732204C0.328008 17.8306 0.000396729 18.1582 0.000396729 18.5628V32.1093C0.000396729 32.5135 0.328008 32.8416 0.732204 32.8416H6.80876C7.21296 32.8416 7.54057 32.5135 7.54057 32.1093V30.9469H10.0487L18.7279 33.7048C20.6961 34.4332 22.3465 34.7979 23.9965 34.7979C25.3192 34.7979 26.6416 34.5639 28.1282 34.0954C28.2652 34.0524 28.403 34.0073 28.5426 33.9605C28.8438 33.8448 29.1361 33.707 29.4178 33.5495C29.6501 33.4198 29.8701 33.2692 30.0764 33.1007L42.2036 23.1979C42.2436 23.1651 42.2802 23.1281 42.3125 23.0877C43.2145 21.9593 43.1677 20.2374 42.2066 19.1682ZM6.07695 31.3771H1.46359V19.2955H6.07695V31.3771ZM41.2118 22.1176L29.9007 31.3537C28.9128 32.1604 27.7551 32.7331 26.5135 33.0237C24.0547 33.5993 22.0274 33.3666 19.2197 32.3255C19.2091 32.3216 19.198 32.3178 19.1869 32.3144L10.3836 29.5165C10.3117 29.494 10.2372 29.4825 10.1619 29.4825H7.54057V21.1548H10.1623C10.2644 21.1548 10.3657 21.1331 10.4593 21.0914L11.8289 20.4821C14.6268 19.2372 17.8029 19.5639 20.3515 21.3518C20.862 22.1074 21.6708 22.5537 22.5443 22.5537H29.5935C30.2521 22.5537 30.7984 23.1545 30.8108 23.8922C30.8172 24.3003 30.6704 24.687 30.4074 24.9551C30.2781 25.0865 30.127 25.1814 29.9662 25.235C29.7582 25.2686 29.5467 25.2856 29.3331 25.2856H21.4921C21.0896 25.2856 20.7544 25.606 20.7493 26.0085C20.7442 26.4174 21.0739 26.7505 21.4811 26.7505H29.6561C29.876 26.7505 30.0922 26.7212 30.3011 26.6642C31.2133 26.4995 32.0748 26.1008 32.8318 25.4877L39.5486 20.0494C39.555 20.0443 39.561 20.0396 39.5669 20.0341C40.0392 19.6256 40.6919 19.6737 41.1186 20.1481C41.5905 20.6731 41.6266 21.5415 41.2118 22.1176Z" fill="black"/>
</g>
</svg>
