<svg width="35" height="30" viewBox="0 0 35 30" fill="none" xmlns="http://www.w3.org/2000/svg">
<path d="M28.3843 1.64642C28.3843 1.5923 28.3816 1.53851 28.3765 1.48506C28.3711 1.43127 28.3633 1.37816 28.3528 1.32505C28.3423 1.27228 28.3291 1.22019 28.3136 1.16843C28.2977 1.11701 28.2798 1.06627 28.2591 1.01654C28.2385 0.966474 28.2155 0.917761 28.1901 0.870401C28.1647 0.822703 28.137 0.776697 28.1072 0.731705C28.0771 0.687052 28.045 0.643752 28.0108 0.602143C27.9767 0.560196 27.9408 0.520279 27.9026 0.482391C27.8643 0.444165 27.8244 0.407969 27.7828 0.373802C27.7412 0.339636 27.6979 0.307499 27.6533 0.277392C27.6086 0.247623 27.5623 0.219884 27.5149 0.194513C27.4672 0.169141 27.4188 0.146138 27.3688 0.125503C27.319 0.104868 27.2686 0.0866003 27.2169 0.0710394C27.1655 0.0554783 27.1134 0.0422853 27.0602 0.0317985C27.0075 0.0213118 26.9544 0.013193 26.9006 0.00811878C26.8471 0.00270626 26.7933 0 26.7396 0H7.61914C7.56535 0 7.51157 0.00270626 7.45812 0.00811878C7.40433 0.013193 7.35122 0.0213118 7.29845 0.0317985C7.24534 0.0422853 7.19324 0.0554783 7.14182 0.0710394C7.09007 0.0866003 7.03966 0.104868 6.98994 0.125503C6.93987 0.146138 6.8915 0.169141 6.8438 0.194513C6.79644 0.219884 6.75009 0.247623 6.70544 0.277392C6.66045 0.307499 6.61749 0.339636 6.57588 0.373802C6.53427 0.407969 6.49435 0.444165 6.45613 0.482391C6.4179 0.520279 6.38204 0.560196 6.34787 0.602143C6.31371 0.643752 6.28157 0.687052 6.25146 0.731705C6.2217 0.776697 6.19396 0.822703 6.16858 0.870401C6.14321 0.917761 6.12021 0.966474 6.09958 1.01654C6.07894 1.06627 6.06101 1.11701 6.04511 1.16843C6.02955 1.22019 6.01636 1.27228 6.00587 1.32505C5.99538 1.37816 5.9876 1.43127 5.98219 1.48506C5.97712 1.53851 5.97441 1.5923 5.97441 1.64642V7.06097L0 11.1454V27.9652C0 28.0189 0.00270626 28.0727 0.00778051 28.1265C0.013193 28.18 0.0209736 28.2334 0.0314603 28.2862C0.0419471 28.3393 0.0551401 28.3914 0.0707011 28.4431C0.0866004 28.4946 0.104529 28.5453 0.125165 28.595C0.1458 28.6448 0.168803 28.6935 0.194174 28.7412C0.219545 28.7885 0.247285 28.8349 0.277054 28.8799C0.307161 28.9245 0.339298 28.9678 0.373464 29.0094C0.407631 29.051 0.443827 29.091 0.481715 29.1292C0.51994 29.1674 0.559858 29.2036 0.601467 29.2378C0.643075 29.2719 0.686376 29.3041 0.731029 29.3338C0.775682 29.364 0.822027 29.3917 0.869386 29.4171C0.917084 29.4424 0.965459 29.4654 1.01552 29.4861C1.06525 29.5067 1.11566 29.525 1.16741 29.5405C1.21883 29.5561 1.27127 29.5693 1.32404 29.5798C1.37681 29.5903 1.42992 29.598 1.48371 29.6035C1.53716 29.6089 1.59094 29.6112 1.64473 29.6112H32.714C32.7678 29.6112 32.8215 29.6089 32.875 29.6035C32.9288 29.598 32.9819 29.5903 33.0347 29.5798C33.0874 29.5693 33.1399 29.5561 33.1913 29.5405C33.243 29.525 33.2934 29.5067 33.3432 29.4861C33.3932 29.4654 33.4416 29.4424 33.4893 29.4171C33.5367 29.3917 33.583 29.364 33.6277 29.3338C33.6723 29.3041 33.7156 29.2719 33.7572 29.2378C33.7988 29.2036 33.8388 29.1674 33.877 29.1292C33.9149 29.091 33.9511 29.051 33.9852 29.0094C34.0194 28.9678 34.0515 28.9245 34.0816 28.8799C34.1114 28.8349 34.1392 28.7889 34.1645 28.7412C34.1899 28.6935 34.2129 28.6448 34.2335 28.595C34.2542 28.5453 34.2721 28.4946 34.288 28.4431C34.3036 28.3914 34.3164 28.3393 34.3272 28.2862C34.3377 28.2334 34.3455 28.18 34.3509 28.1265C34.356 28.0727 34.3587 28.0189 34.3587 27.9652V11.1454L28.3843 7.06097V1.64642ZM13.0783 17.7727L1.46206 27.3302V12.6528L13.0783 17.7727ZM14.5786 18.433L17.1793 19.5727L19.7801 18.4259L31.5882 28.1407H2.77054L14.5786 18.433ZM21.2803 17.7727L32.8966 12.6508V27.3285L21.2803 17.7727ZM7.61914 1.46341H26.7396C26.7636 1.46341 26.7869 1.46815 26.8092 1.47728C26.8319 1.48675 26.8515 1.49995 26.8688 1.5172C26.8857 1.53411 26.8989 1.55407 26.9084 1.5764C26.9175 1.59872 26.9222 1.62207 26.9222 1.64642V13.6862L17.1793 17.9814L7.43647 13.6862V1.64642C7.43647 1.62207 7.4412 1.59872 7.45034 1.5764C7.45981 1.55407 7.473 1.53411 7.48992 1.5172C7.50717 1.49995 7.52679 1.48675 7.54912 1.47728C7.57178 1.46815 7.59512 1.46341 7.61914 1.46341ZM5.97441 13.0425L2.23165 11.3961L5.97441 8.83527V13.0425ZM32.127 11.3961L28.3843 13.0425V8.83527L32.127 11.3961Z" fill="black"/>
</svg>
