<svg width="35" height="34" viewBox="0 0 35 34" fill="none" xmlns="http://www.w3.org/2000/svg">
<path d="M17.6842 0C13.0708 0 12.4907 0.02125 10.6781 0.102C8.86545 0.187 7.63083 0.47175 6.5492 0.8925C5.41465 1.31924 4.387 1.98863 3.53808 2.85388C2.67337 3.70323 2.00406 4.73076 1.5767 5.865C1.15595 6.9445 0.869079 8.18125 0.786204 9.9875C0.705454 11.8044 0.684204 12.3824 0.684204 17.0021C0.684204 21.6176 0.705454 22.1956 0.786204 24.0083C0.871204 25.8188 1.15595 27.0534 1.5767 28.135C2.01233 29.2528 2.59245 30.2005 3.53808 31.1461C4.48158 32.0917 5.42933 32.674 6.54708 33.1075C7.63083 33.5283 8.86333 33.8151 10.6738 33.898C12.4886 33.9787 13.0666 34 17.6842 34C22.3018 34 22.8777 33.9787 24.6925 33.898C26.5008 33.813 27.7397 33.5283 28.8213 33.1075C29.9552 32.6805 30.9821 32.0112 31.8303 31.1461C32.776 30.2005 33.3561 29.2528 33.7917 28.135C34.2103 27.0534 34.4972 25.8188 34.5822 24.0083C34.663 22.1956 34.6842 21.6176 34.6842 17C34.6842 12.3824 34.663 11.8044 34.5822 9.98963C34.4972 8.18125 34.2103 6.9445 33.7917 5.865C33.3644 4.73073 32.6951 3.70319 31.8303 2.85388C30.9817 1.98831 29.9539 1.31887 28.8192 0.8925C27.7355 0.47175 26.4987 0.184875 24.6903 0.102C22.8756 0.02125 22.2997 0 17.68 0H17.6863H17.6842ZM16.1606 3.06425H17.6863C22.2253 3.06425 22.763 3.07913 24.5543 3.162C26.2118 3.23638 27.1128 3.51475 27.7121 3.74638C28.5047 4.0545 29.0721 4.42425 29.6671 5.01925C30.2621 5.61425 30.6297 6.1795 30.9378 6.97425C31.1716 7.57137 31.4478 8.47238 31.5222 10.1299C31.6051 11.9213 31.6221 12.4589 31.6221 16.9958C31.6221 21.5326 31.6051 22.0724 31.5222 23.8637C31.4478 25.5212 31.1695 26.4201 30.9378 27.0194C30.6653 27.7575 30.2303 28.4249 29.665 28.9722C29.07 29.5672 28.5047 29.9349 27.71 30.243C27.115 30.4768 26.214 30.753 24.5543 30.8295C22.763 30.9103 22.2253 30.9294 17.6863 30.9294C13.1473 30.9294 12.6076 30.9103 10.8162 30.8295C9.1587 30.753 8.25983 30.4768 7.66058 30.243C6.92214 29.9708 6.2541 29.5366 5.70558 28.9722C5.1398 28.4241 4.70412 27.756 4.43058 27.0173C4.19895 26.4201 3.92058 25.5191 3.8462 23.8616C3.76545 22.0702 3.74845 21.5326 3.74845 16.9915C3.74845 12.4525 3.76545 11.917 3.8462 10.1256C3.9227 8.46812 4.19895 7.56713 4.4327 6.96788C4.74083 6.17525 5.11058 5.60787 5.70558 5.01288C6.30058 4.41787 6.86583 4.05025 7.66058 3.74213C8.25983 3.50838 9.1587 3.23213 10.8162 3.15563C12.3845 3.08337 12.9922 3.06213 16.1606 3.06V3.06425ZM26.7601 5.88625C26.4922 5.88625 26.2269 5.93902 25.9794 6.04154C25.7319 6.14406 25.507 6.29432 25.3176 6.48375C25.1281 6.67318 24.9779 6.89807 24.8754 7.14558C24.7728 7.39308 24.7201 7.65835 24.7201 7.92625C24.7201 8.19415 24.7728 8.45942 24.8754 8.70692C24.9779 8.95443 25.1281 9.17932 25.3176 9.36875C25.507 9.55818 25.7319 9.70844 25.9794 9.81096C26.2269 9.91348 26.4922 9.96625 26.7601 9.96625C27.3011 9.96625 27.82 9.75132 28.2026 9.36875C28.5852 8.98617 28.8001 8.46729 28.8001 7.92625C28.8001 7.38521 28.5852 6.86633 28.2026 6.48375C27.82 6.10118 27.3011 5.88625 26.7601 5.88625ZM17.6863 8.2705C16.5284 8.25243 15.3784 8.46491 14.3033 8.89555C13.2282 9.32619 12.2495 9.9664 11.4243 10.7789C10.599 11.5914 9.9436 12.56 9.49624 13.6282C9.04888 14.6964 8.81849 15.8429 8.81849 17.0011C8.81849 18.1592 9.04888 19.3057 9.49624 20.3739C9.9436 21.4422 10.599 22.4107 11.4243 23.2232C12.2495 24.0357 13.2282 24.6759 14.3033 25.1066C15.3784 25.5372 16.5284 25.7497 17.6863 25.7316C19.9782 25.6959 22.1642 24.7603 23.7723 23.1269C25.3804 21.4935 26.2817 19.2932 26.2817 17.0011C26.2817 14.7089 25.3804 12.5086 23.7723 10.8752C22.1642 9.24181 19.9782 8.30626 17.6863 8.2705ZM17.6863 11.3326C19.1894 11.3326 20.6309 11.9297 21.6938 12.9926C22.7566 14.0554 23.3537 15.4969 23.3537 17C23.3537 18.5031 22.7566 19.9446 21.6938 21.0074C20.6309 22.0703 19.1894 22.6674 17.6863 22.6674C16.1832 22.6674 14.7417 22.0703 13.6789 21.0074C12.6161 19.9446 12.019 18.5031 12.019 17C12.019 15.4969 12.6161 14.0554 13.6789 12.9926C14.7417 11.9297 16.1832 11.3326 17.6863 11.3326Z" fill="white"/>
</svg>
