<svg width="35" height="34" viewBox="0 0 35 34" fill="none" xmlns="http://www.w3.org/2000/svg">
<path d="M0.368423 2.43525C0.368423 1.09013 1.48617 0 2.8653 0H31.8715C33.2507 0 34.3684 1.09013 34.3684 2.43525V31.5648C34.3684 32.9099 33.2507 34 31.8715 34H2.8653C1.48617 34 0.368423 32.9099 0.368423 31.5648V2.43525ZM10.8723 28.4622V13.1091H5.77017V28.4622H10.8723ZM8.3223 11.0118C10.1009 11.0118 11.208 9.8345 11.208 8.35975C11.1762 6.85313 10.103 5.70775 8.3563 5.70775C6.60955 5.70775 5.46842 6.85525 5.46842 8.35975C5.46842 9.8345 6.57555 11.0118 8.2883 11.0118H8.3223ZM18.7518 28.4622V19.8879C18.7518 19.4289 18.7858 18.9699 18.9218 18.6426C19.2894 17.7267 20.1288 16.7769 21.5398 16.7769C23.3864 16.7769 24.1238 18.1836 24.1238 20.2491V28.4622H29.2259V19.6562C29.2259 14.9388 26.7099 12.7458 23.3524 12.7458C20.6452 12.7458 19.4318 14.2332 18.7518 15.2809V15.334H18.7178C18.7291 15.3163 18.7404 15.2986 18.7518 15.2809V13.1091H13.6518C13.7155 14.5499 13.6518 28.4622 13.6518 28.4622H18.7518Z" fill="white"/>
</svg>
