<svg width="34" height="34" viewBox="0 0 34 34" fill="none" xmlns="http://www.w3.org/2000/svg">
<path d="M29.04 4.94071C27.4795 3.36883 25.6223 2.12263 23.5761 1.27449C21.53 0.426349 19.3358 -0.00683946 17.1209 8.16426e-05C7.83673 8.16426e-05 0.280234 7.55658 0.280234 16.8471C0.280234 19.8157 1.05798 22.7185 2.53061 25.2685L0.139984 34.0001L9.07136 31.6562C11.5405 33.0012 14.307 33.7069 17.1187 33.709H17.1251C26.4092 33.709 33.9721 26.1525 33.9721 16.862C33.9777 14.6478 33.5446 12.4544 32.6977 10.4086C31.8508 8.36284 30.6069 6.50513 29.0379 4.94283L29.04 4.94071ZM17.1251 30.8657C14.6158 30.8661 12.1526 30.1916 9.99361 28.9128L9.48148 28.6068L4.18173 29.9945L5.59698 24.8286L5.26548 24.2973C3.85822 22.0677 3.11454 19.4837 3.12136 16.8471C3.12586 13.1328 4.6038 9.57197 7.23081 6.94615C9.85782 4.32033 13.4193 2.84402 17.1336 2.84121C20.8715 2.84121 24.3926 4.30321 27.034 6.94458C28.3375 8.24335 29.3707 9.78755 30.0739 11.488C30.7771 13.1884 31.1364 15.0113 31.131 16.8513C31.1246 24.58 24.8431 30.8657 17.1251 30.8657ZM24.8027 20.3746C24.3841 20.1621 22.3122 19.1463 21.9276 19.0061C21.543 18.8658 21.2625 18.7936 20.9777 19.2186C20.6994 19.6372 19.8897 20.5871 19.6432 20.8718C19.3967 21.1502 19.1524 21.1906 18.7337 20.9781C18.3151 20.7656 16.953 20.3215 15.3465 18.8871C14.097 17.7715 13.2491 16.3902 13.0026 15.9716C12.7561 15.553 12.975 15.3213 13.1896 15.1152C13.383 14.9282 13.6082 14.6243 13.8207 14.3778C14.0332 14.1313 14.0991 13.9592 14.2394 13.6745C14.3796 13.3961 14.3116 13.1496 14.2054 12.9371C14.0991 12.7246 13.2555 10.6527 12.9112 9.80908C12.5734 8.98458 12.2206 9.09933 11.9614 9.08446C11.7149 9.07171 11.4365 9.07171 11.1581 9.07171C10.8797 9.07171 10.4207 9.17796 10.0361 9.59658C9.65148 10.0152 8.56136 11.0373 8.56136 13.1092C8.56136 15.1811 10.068 17.1807 10.2805 17.4655C10.493 17.7438 13.2491 22.0002 17.4715 23.8213C18.4745 24.2527 19.2586 24.512 19.8685 24.7117C20.8779 25.0305 21.7937 24.9837 22.5184 24.8775C23.328 24.7585 25.0089 23.8617 25.3616 22.8778C25.7144 21.894 25.7144 21.0525 25.6081 20.8782C25.5082 20.6912 25.2299 20.5871 24.8049 20.3725L24.8027 20.3746Z" fill="white"/>
</svg>
